<svg xmlns="http://www.w3.org/2000/svg" width="900" height="1125" viewBox="0 0 900 1125" fill="none">
<rect width="900" height="1125" rx="42" fill="#05070D"/>
<rect x="44" y="44" width="812" height="1037" rx="34" fill="url(#g1)"/>
<circle cx="692" cy="182" r="104" fill="#56A7FF" fill-opacity="0.16"/>
<circle cx="195" cy="953" r="132" fill="#56A7FF" fill-opacity="0.14"/>
<rect x="96" y="110" width="300" height="74" rx="18" fill="white" fill-opacity="0.1"/>
<rect x="118" y="132" width="166" height="14" rx="7" fill="#D9EBFF" fill-opacity="0.9"/>
<rect x="118" y="156" width="106" height="10" rx="5" fill="#B5D4FF" fill-opacity="0.7"/>
<circle cx="450" cy="524" r="168" fill="#0B5CFF" fill-opacity="0.18"/>
<circle cx="450" cy="440" r="110" fill="#D9EBFF"/>
<path d="M333 800C333 725.441 393.441 665 468 665H432C506.559 665 567 725.441 567 800V843H333V800Z" fill="#D9EBFF"/>
<rect x="606" y="400" width="184" height="206" rx="28" fill="white" fill-opacity="0.11" stroke="white" stroke-opacity="0.16"/>
<path d="M649 556L686 474L719 523L744 483L770 556H649Z" fill="#B5D4FF"/>
<rect x="638" y="435" width="92" height="14" rx="7" fill="#D9EBFF"/>
<rect x="638" y="458" width="55" height="10" rx="5" fill="#A2C6FF"/>
<rect x="122" y="908" width="655" height="72" rx="20" fill="white" fill-opacity="0.1"/>
<rect x="151" y="932" width="210" height="14" rx="7" fill="#D9EBFF"/>
<rect x="389" y="932" width="137" height="14" rx="7" fill="#8FC2FF"/>
<rect x="548" y="932" width="198" height="14" rx="7" fill="#D9EBFF" fill-opacity="0.8"/>
<defs><linearGradient id="g1" x1="98" y1="92" x2="772" y2="1031" gradientUnits="userSpaceOnUse"><stop stop-color="#061A40"/><stop offset="0.5" stop-color="#0B5CFF"/><stop offset="1" stop-color="#061A40"/></linearGradient></defs></svg>