<svg xmlns="http://www.w3.org/2000/svg" viewBox="0 0 900 560" role="img" aria-label="Personal Brand">
<defs><linearGradient id="g" x1="0" x2="1" y1="0" y2="1"><stop stop-color="#0b5cff"/><stop offset="1" stop-color="#061a40"/></linearGradient><filter id="blur"><feGaussianBlur stdDeviation="22"/></filter></defs>
<rect width="900" height="560" fill="#05070d"/><circle cx="720" cy="90" r="180" fill="#0b5cff" opacity=".26" filter="url(#blur)"/><circle cx="160" cy="460" r="220" fill="#061a40" opacity=".5" filter="url(#blur)"/>
<path d="M90 420 C210 220 330 520 470 260 S760 240 820 120" fill="none" stroke="#fff" stroke-opacity=".16" stroke-width="6"/>
<g opacity=".8"><rect x="80" y="100" width="42" height="42" rx="10" fill="#fff" opacity="0.08"/><rect x="165" y="155" width="42" height="42" rx="10" fill="#fff" opacity="0.09"/><rect x="250" y="210" width="42" height="42" rx="10" fill="#fff" opacity="0.1"/><rect x="335" y="265" width="42" height="42" rx="10" fill="#fff" opacity="0.11"/><rect x="420" y="100" width="42" height="42" rx="10" fill="#fff" opacity="0.12"/><rect x="505" y="155" width="42" height="42" rx="10" fill="#fff" opacity="0.13"/><rect x="590" y="210" width="42" height="42" rx="10" fill="#fff" opacity="0.14"/><rect x="675" y="265" width="42" height="42" rx="10" fill="#fff" opacity="0.15000000000000002"/><rect x="760" y="100" width="42" height="42" rx="10" fill="#fff" opacity="0.16"/></g>
<rect x="70" y="70" width="760" height="420" rx="34" fill="#fff" opacity=".06" stroke="#fff" stroke-opacity=".18"/>
<text x="92" y="132" fill="#ffffff" font-family="Times New Roman, serif" font-size="34" font-weight="700">Personal Brand</text>
<text x="92" y="182" fill="#dbeafe" font-family="Times New Roman, serif" font-size="20" font-style="italic">Muhammad Haider Abbas Portfolio Case Study</text>
<text x="92" y="430" fill="#ffffff" font-family="Times New Roman, serif" font-size="22">AI • Web • Cybersecurity • Game Dev • VFX</text>
</svg>
