<svg xmlns="http://www.w3.org/2000/svg" width="1200" height="900" viewBox="0 0 1200 900" fill="none">
  <rect width="1200" height="900" rx="36" fill="#061A40"/>
  <rect x="36" y="36" width="1128" height="828" rx="30" fill="url(#paint0_linear)"/>
  <circle cx="922" cy="190" r="126" fill="#56A7FF" fill-opacity="0.24"/>
  <circle cx="235" cy="707" r="162" fill="#0B5CFF" fill-opacity="0.30"/>
  <rect x="94" y="96" width="422" height="154" rx="28" fill="white" fill-opacity="0.10"/>
  <rect x="132" y="136" width="242" height="20" rx="10" fill="#D8E9FF"/>
  <rect x="132" y="173" width="180" height="14" rx="7" fill="#AACFFF"/>
  <rect x="624" y="160" width="442" height="526" rx="34" fill="white" fill-opacity="0.08" stroke="white" stroke-opacity="0.14"/>
  <circle cx="845" cy="339" r="96" fill="#D8E9FF"/>
  <path d="M720 579C720 503.337 781.337 442 857 442C932.663 442 994 503.337 994 579V626H720V579Z" fill="#D8E9FF"/>
  <rect x="112" y="332" width="370" height="402" rx="32" fill="white" fill-opacity="0.08" stroke="white" stroke-opacity="0.12"/>
  <rect x="152" y="378" width="220" height="18" rx="9" fill="#D8E9FF"/>
  <rect x="152" y="415" width="170" height="12" rx="6" fill="#B4D3FF"/>
  <rect x="152" y="471" width="288" height="14" rx="7" fill="#D8E9FF" fill-opacity="0.85"/>
  <rect x="152" y="505" width="250" height="14" rx="7" fill="#D8E9FF" fill-opacity="0.60"/>
  <rect x="152" y="539" width="228" height="14" rx="7" fill="#D8E9FF" fill-opacity="0.75"/>
  <rect x="152" y="602" width="122" height="52" rx="16" fill="#0B5CFF"/>
  <rect x="294" y="602" width="122" height="52" rx="16" fill="white" fill-opacity="0.10"/>
  <defs>
    <linearGradient id="paint0_linear" x1="99" y1="62" x2="1018" y2="799" gradientUnits="userSpaceOnUse">
      <stop stop-color="#0A1E4D"/>
      <stop offset="0.54" stop-color="#0B5CFF"/>
      <stop offset="1" stop-color="#08172F"/>
    </linearGradient>
  </defs>
</svg>
