<svg xmlns="http://www.w3.org/2000/svg" viewBox="0 0 210 210" role="img" aria-label="AI / ML">
<defs><linearGradient id="g" x1="0" y1="0" x2="1" y2="1"><stop stop-color="#0b5cff"/><stop offset="1" stop-color="#56a7ff"/></linearGradient><filter id="s" x="-20%" y="-20%" width="140%" height="140%"><feDropShadow dx="0" dy="18" stdDeviation="15" flood-color="#061a40" flood-opacity=".22"/></filter></defs>
<rect width="210" height="210" rx="34" fill="#f7fbff"/><circle cx="166" cy="42" r="54" fill="url(#g)" opacity=".13"/><circle cx="43" cy="174" r="46" fill="url(#g)" opacity=".10"/><g filter="url(#s)"><rect x="31" y="28" width="148" height="154" rx="32" fill="#fff" stroke="#dbeafe"/></g><g fill="none" stroke="url(#g)" stroke-width="8" stroke-linecap="round" stroke-linejoin="round"><path d="M70 108c-18 0-30-11-30-27 0-10 5-18 13-23 1-17 14-30 31-30 9 0 17 4 22 10 6-6 14-10 23-10 17 0 30 13 31 30 8 5 13 13 13 23 0 16-12 27-30 27"/><path d="M87 43v98M123 43v98M68 70h39M105 92H62M123 70h39M123 92h45"/></g><text x="105" y="191" text-anchor="middle" font-family="Times New Roman, serif" font-size="15" font-weight="700" fill="#061a40">AI / ML</text></svg>